<?xml version="1.0" encoding="UTF-8"?>
<svg xmlns="http://www.w3.org/2000/svg" version="1.1" viewBox="0 0 150 100">
  <defs>
    <style>
      .cls-1 {
        fill: #4498bc;
      }
    </style>
  </defs>
  <!-- Generator: Adobe Illustrator 28.6.0, SVG Export Plug-In . SVG Version: 1.2.0 Build 709)  -->
  <g>
    <g id="_レイヤー_1" data-name="レイヤー_1">
      <path class="cls-1" d="M147.3,5.3c-1.6-2.4-4.9-3.1-7.3-1.5l-65,43.3L10,3.8c-2.4-1.6-5.7-1-7.3,1.5-1.6,2.4-1,5.7,1.5,7.3l67.9,45.3s0,0,.1,0c.2,0,.3.2.5.3,0,0,.2,0,.2.1.1,0,.3.1.4.2,0,0,.2,0,.3,0,.1,0,.3,0,.4,0,0,0,.2,0,.3,0,.2,0,.4,0,.6,0,0,0,0,0,0,0h0s0,0,0,0c.2,0,.4,0,.6,0,0,0,.2,0,.3,0,.1,0,.3,0,.4,0,0,0,.2,0,.3,0,.1,0,.3,0,.4-.2,0,0,.2,0,.2-.1.2,0,.3-.2.5-.3,0,0,0,0,.1,0L145.8,12.6c2.4-1.6,3.1-4.9,1.5-7.3Z"/>
      <path class="cls-1" d="M147.3,44.8c-1.6-2.4-4.9-3.1-7.3-1.5l-65,43.3L10,43.3c-2.4-1.6-5.7-1-7.3,1.5-1.6,2.4-1,5.7,1.5,7.3l67.9,45.2s0,0,0,0h0c0,0,0,0,.1.1.2.1.3.2.5.3,0,0,.2,0,.2.1.1,0,.3.1.4.2,0,0,.2,0,.3,0,.1,0,.3,0,.4,0,0,0,.2,0,.3,0,.2,0,.4,0,.6,0,0,0,0,0,0,0h0s0,0,0,0c.2,0,.4,0,.6,0,0,0,.2,0,.3,0,.1,0,.3,0,.4,0,0,0,.2,0,.3,0,.1,0,.3,0,.4-.2,0,0,.2,0,.3-.1.2,0,.3-.2.5-.3,0,0,0,0,.1,0h0s0,0,0,0l67.9-45.2c2.4-1.6,3.1-4.9,1.5-7.3Z"/>
    </g>
  </g>
</svg>